<svg xmlns="http://www.w3.org/2000/svg" style="display: none">
  <symbol id="github" viewBox="0 0 25 25">
    <g>
      <g clip-path="url(#clip0_51_8)">
      <path fill-rule="evenodd" clip-rule="evenodd" d="M12.5 0C19.4037 0 25 5.73741 25 12.8162C25 18.4774 21.4225 23.2799 16.4587 24.9762C15.825 25.1024 15.6 24.7022 15.6 24.361C15.6 23.9385 15.615 22.5585 15.615 20.8435C15.615 19.6485 15.215 18.8686 14.7663 18.4711C17.55 18.1536 20.475 17.0697 20.475 12.1472C20.475 10.7472 19.99 9.60477 19.1875 8.70727C19.3175 8.38352 19.7462 7.07994 19.065 5.31494C19.065 5.31494 18.0175 4.97153 15.6312 6.62903C14.6325 6.34528 13.5625 6.20251 12.5 6.19751C11.4375 6.20251 10.3688 6.34528 9.37125 6.62903C6.9825 4.97153 5.9325 5.31494 5.9325 5.31494C5.25375 7.07994 5.6825 8.38352 5.81125 8.70727C5.0125 9.60477 4.52375 10.7472 4.52375 12.1472C4.52375 17.0572 7.4425 18.1577 10.2188 18.4814C9.86125 18.8014 9.5375 19.3659 9.425 20.1947C8.7125 20.5222 6.9025 21.089 5.7875 19.1302C5.7875 19.1302 5.12625 17.8988 3.87125 17.8088C3.87125 17.8088 2.6525 17.7926 3.78625 18.5876C3.78625 18.5876 4.605 18.9814 5.17375 20.4626C5.17375 20.4626 5.9075 22.7501 9.385 21.9751C9.39125 23.0463 9.4025 24.056 9.4025 24.361C9.4025 24.6997 9.1725 25.0962 8.54875 24.9774C3.58125 23.2837 0 18.4787 0 12.8162C0 5.73741 5.5975 0 12.5 0Z"/>
      </g>
      <defs>
      <clipPath id="clip0_51_8">
      <rect />
      </clipPath>
      </defs>
    </g>
  </symbol>
  <symbol id="linkedin" viewBox="0 0 25 25">
    <g>
      <g clip-path="url(#clip0_51_14)">
      <path d="M23.0469 0H1.95312C0.874023 0 0 0.874023 0 1.95312V23.0469C0 24.126 0.874023 25 1.95312 25H23.0469C24.126 25 25 24.126 25 23.0469V1.95312C25 0.874023 24.126 0 23.0469 0ZM9.00391 17.7295H6.56738V9.93164H9.00391V17.7295ZM7.71973 8.95508H7.7002C6.81641 8.95508 6.24512 8.35938 6.24512 7.60254C6.24512 6.83106 6.83594 6.25 7.73437 6.25C8.63281 6.25 9.18457 6.83106 9.2041 7.60254C9.20898 8.35449 8.6377 8.95508 7.71973 8.95508ZM18.75 17.7295H15.9863V13.6963C15.9863 12.6416 15.5566 11.9189 14.6045 11.9189C13.877 11.9189 13.4717 12.4072 13.2861 12.876C13.2178 13.042 13.2275 13.2764 13.2275 13.5156V17.7295H10.4883C10.4883 17.7295 10.5225 10.5811 10.4883 9.93164H13.2275V11.1572C13.3887 10.6201 14.2627 9.8584 15.6592 9.8584C17.3926 9.8584 18.75 10.9814 18.75 13.3936V17.7295Z"/>
      </g>
      <defs>
        <clipPath id="clip0_51_14">
        <rect />
        </clipPath>
      </defs>
    </g>
  </symbol>
  <symbol id="telegram" viewBox="0 0 25 25">
    <g>
      <g clip-path="url(#clip0_51_19)">
      <path d="M17.2828 7.84375C17.2875 7.84375 17.2937 7.84375 17.3 7.84375C17.4633 7.84375 17.6148 7.89453 17.7391 7.98203L17.7367 7.98047C17.8273 8.05938 17.8883 8.17031 17.9031 8.29531V8.29766C17.9187 8.39297 17.9273 8.50234 17.9273 8.61406C17.9273 8.66484 17.9258 8.71484 17.9219 8.76484V8.75781C17.7461 10.6086 16.9836 15.0969 16.5961 17.1688C16.432 18.0461 16.1094 18.3398 15.7969 18.368C15.118 18.4312 14.6023 17.9195 13.9445 17.4883C12.9148 16.8125 12.3328 16.3922 11.3336 15.7336C10.1781 14.9734 10.9273 14.5539 11.5852 13.8711C11.7578 13.6914 14.7508 10.9688 14.8094 10.7219C14.8125 10.707 14.8141 10.6906 14.8141 10.6734C14.8141 10.6125 14.7914 10.557 14.7547 10.5148C14.7141 10.4883 14.6633 10.4734 14.6102 10.4734C14.575 10.4734 14.5414 10.4805 14.5102 10.4922L14.5117 10.4914C14.4086 10.5148 12.7638 11.6018 9.57734 13.7523C9.22969 14.0266 8.79062 14.2 8.3125 14.2203H8.30781C7.63047 14.1383 7.01562 13.9875 6.43203 13.7727L6.48984 13.7914C5.75703 13.5523 5.175 13.4266 5.225 13.0219C5.25156 12.8115 5.54167 12.5961 6.09531 12.3758C9.50573 10.8898 11.7799 9.91042 12.918 9.4375C14.1734 8.77109 15.6289 8.22266 17.1594 7.86719L17.282 7.84297L17.2828 7.84375ZM12.4453 0.800781C5.95937 0.816406 0.707031 6.07812 0.707031 12.5664C0.707031 19.0641 5.97422 24.332 12.4727 24.332C18.9711 24.332 24.2383 19.0648 24.2383 12.5664C24.2383 6.07812 18.9859 0.816406 12.5016 0.800781H12.5C12.4818 0.800781 12.4635 0.800781 12.4453 0.800781Z"/>
      </g>
      <defs>
        <clipPath id="clip0_51_19">
        <rect/>
        </clipPath>
      </defs>
    </g>
  </symbol>
  <symbol id="email" viewBox="0 0 30 30">
    <path fill-rule="evenodd" clip-rule="evenodd" d="M8.02326 1.8125C5.76981 1.8125 3.73207 2.40701 2.25301 3.85675C0.759935 5.32026 0 7.49358 0 10.2817V20.5921C0 23.3803 0.759935 25.5536 2.25301 27.0171C3.73207 28.4668 5.76981 29.0613 8.02326 29.0613H21.9767C24.2302 29.0613 26.268 28.4668 27.7469 27.0171C29.2401 25.5536 30 23.3803 30 20.5921V10.2817C30 7.49358 29.2401 5.32026 27.7469 3.85675C26.268 2.40701 24.2302 1.8125 21.9767 1.8125H8.02326ZM25.0863 10.0789C25.5435 9.70587 25.6278 9.01211 25.2744 8.52935C24.9211 8.04657 24.2639 7.95762 23.8065 8.33066L16.0663 14.6439C15.4383 15.1563 14.5616 15.1563 13.9334 14.6439L6.1934 8.33066C5.73604 7.95762 5.07882 8.04657 4.72542 8.52935C4.37202 9.01211 4.45628 9.70587 4.91364 10.0789L12.6537 16.3922C14.0357 17.5193 15.9642 17.5193 17.3461 16.3922L25.0863 10.0789Z"/>
  </symbol>
  <symbol id="angle_b" viewBox="0 0 18 11">
    <path d="M9 10.3092C8.73626 10.3092 8.51648 10.2213 8.34066 10.0455L1.26374 2.96844C0.912088 2.61678 0.912088 2.04534 1.26374 1.64973C1.61538 1.29807 2.18681 1.29807 2.58242 1.64973L9 8.06744L15.4176 1.64973C15.7692 1.29807 16.3407 1.29807 16.7363 1.64973C17.0879 2.00138 17.0879 2.57282 16.7363 2.96844L9.65934 10.0455C9.48352 10.2213 9.21978 10.3092 9 10.3092Z" stroke-width="1.28"/>
  </symbol>
</svg>