<svg width="25" height="25" viewBox="0 0 25 25" fill="none" xmlns="http://www.w3.org/2000/svg">
<g clip-path="url(#clip0_51_14)">
<path d="M23.0469 0H1.95312C0.874023 0 0 0.874023 0 1.95312V23.0469C0 24.126 0.874023 25 1.95312 25H23.0469C24.126 25 25 24.126 25 23.0469V1.95312C25 0.874023 24.126 0 23.0469 0ZM9.00391 17.7295H6.56738V9.93164H9.00391V17.7295ZM7.71973 8.95508H7.7002C6.81641 8.95508 6.24512 8.35938 6.24512 7.60254C6.24512 6.83106 6.83594 6.25 7.73437 6.25C8.63281 6.25 9.18457 6.83106 9.2041 7.60254C9.20898 8.35449 8.6377 8.95508 7.71973 8.95508ZM18.75 17.7295H15.9863V13.6963C15.9863 12.6416 15.5566 11.9189 14.6045 11.9189C13.877 11.9189 13.4717 12.4072 13.2861 12.876C13.2178 13.042 13.2275 13.2764 13.2275 13.5156V17.7295H10.4883C10.4883 17.7295 10.5225 10.5811 10.4883 9.93164H13.2275V11.1572C13.3887 10.6201 14.2627 9.8584 15.6592 9.8584C17.3926 9.8584 18.75 10.9814 18.75 13.3936V17.7295Z" fill="#1C0425"/>
</g>
<defs>
<clipPath id="clip0_51_14">
<rect width="25" height="25" fill="white"/>
</clipPath>
</defs>
</svg>
