<svg width="25" height="25" viewBox="0 0 25 25" fill="none" xmlns="http://www.w3.org/2000/svg">
<g clip-path="url(#clip0_51_19)">
<path d="M17.2828 7.84375C17.2875 7.84375 17.2937 7.84375 17.3 7.84375C17.4633 7.84375 17.6148 7.89453 17.7391 7.98203L17.7367 7.98047C17.8273 8.05938 17.8883 8.17031 17.9031 8.29531V8.29766C17.9187 8.39297 17.9273 8.50234 17.9273 8.61406C17.9273 8.66484 17.9258 8.71484 17.9219 8.76484V8.75781C17.7461 10.6086 16.9836 15.0969 16.5961 17.1688C16.432 18.0461 16.1094 18.3398 15.7969 18.368C15.118 18.4312 14.6023 17.9195 13.9445 17.4883C12.9148 16.8125 12.3328 16.3922 11.3336 15.7336C10.1781 14.9734 10.9273 14.5539 11.5852 13.8711C11.7578 13.6914 14.7508 10.9688 14.8094 10.7219C14.8125 10.707 14.8141 10.6906 14.8141 10.6734C14.8141 10.6125 14.7914 10.557 14.7547 10.5148C14.7141 10.4883 14.6633 10.4734 14.6102 10.4734C14.575 10.4734 14.5414 10.4805 14.5102 10.4922L14.5117 10.4914C14.4086 10.5148 12.7638 11.6018 9.57734 13.7523C9.22969 14.0266 8.79062 14.2 8.3125 14.2203H8.30781C7.63047 14.1383 7.01562 13.9875 6.43203 13.7727L6.48984 13.7914C5.75703 13.5523 5.175 13.4266 5.225 13.0219C5.25156 12.8115 5.54167 12.5961 6.09531 12.3758C9.50573 10.8898 11.7799 9.91042 12.918 9.4375C14.1734 8.77109 15.6289 8.22266 17.1594 7.86719L17.282 7.84297L17.2828 7.84375ZM12.4453 0.800781C5.95937 0.816406 0.707031 6.07812 0.707031 12.5664C0.707031 19.0641 5.97422 24.332 12.4727 24.332C18.9711 24.332 24.2383 19.0648 24.2383 12.5664C24.2383 6.07812 18.9859 0.816406 12.5016 0.800781H12.5C12.4818 0.800781 12.4635 0.800781 12.4453 0.800781Z" fill="#1C0425"/>
</g>
<defs>
<clipPath id="clip0_51_19">
<rect width="25" height="25" fill="white"/>
</clipPath>
</defs>
</svg>
