<svg width="30" height="30" viewBox="0 0 30 30" fill="none" xmlns="http://www.w3.org/2000/svg">
<path fill-rule="evenodd" clip-rule="evenodd" d="M8.02326 1.8125C5.76981 1.8125 3.73207 2.40701 2.25301 3.85675C0.759935 5.32026 0 7.49358 0 10.2817V20.5921C0 23.3803 0.759935 25.5536 2.25301 27.0171C3.73207 28.4668 5.76981 29.0613 8.02326 29.0613H21.9767C24.2302 29.0613 26.268 28.4668 27.7469 27.0171C29.2401 25.5536 30 23.3803 30 20.5921V10.2817C30 7.49358 29.2401 5.32026 27.7469 3.85675C26.268 2.40701 24.2302 1.8125 21.9767 1.8125H8.02326ZM25.0863 10.0789C25.5435 9.70587 25.6278 9.01211 25.2744 8.52935C24.9211 8.04657 24.2639 7.95762 23.8065 8.33066L16.0663 14.6439C15.4383 15.1563 14.5616 15.1563 13.9334 14.6439L6.1934 8.33066C5.73604 7.95762 5.07882 8.04657 4.72542 8.52935C4.37202 9.01211 4.45628 9.70587 4.91364 10.0789L12.6537 16.3922C14.0357 17.5193 15.9642 17.5193 17.3461 16.3922L25.0863 10.0789Z" fill="#1C0425"/>
</svg>
